<svg xmlns="http://www.w3.org/2000/svg" xmlns:xlink="http://www.w3.org/1999/xlink" width="119" zoomAndPan="magnify" viewBox="0 0 89.25 30.000001" height="40" preserveAspectRatio="xMidYMid meet" version="1.0"><defs><g/><clipPath id="9eb685e46f"><path d="M 12 2 L 20 2 L 20 4 L 12 4 Z M 12 2 " clip-rule="nonzero"/></clipPath><clipPath id="2ae1b2944e"><path d="M 12.683594 3.328125 L 19.90625 2.605469 L 20.121094 4.773438 L 12.898438 5.496094 Z M 12.683594 3.328125 " clip-rule="nonzero"/></clipPath><clipPath id="2371a75dd8"><path d="M 12.683594 3.328125 L 19.90625 2.605469 L 20.121094 4.773438 L 12.898438 5.496094 Z M 12.683594 3.328125 " clip-rule="nonzero"/></clipPath><clipPath id="61d0a9ff06"><path d="M 12 4 L 21 4 L 21 6 L 12 6 Z M 12 4 " clip-rule="nonzero"/></clipPath><clipPath id="acd2f220cb"><path d="M 12.683594 3.328125 L 19.90625 2.605469 L 20.121094 4.773438 L 12.898438 5.496094 Z M 12.683594 3.328125 " clip-rule="nonzero"/></clipPath><clipPath id="80f88d8978"><path d="M 12.683594 3.328125 L 19.90625 2.605469 L 20.121094 4.773438 L 12.898438 5.496094 Z M 12.683594 3.328125 " clip-rule="nonzero"/></clipPath></defs><g clip-path="url(#9eb685e46f)"><g clip-path="url(#2ae1b2944e)"><g clip-path="url(#2371a75dd8)"><path fill="#fdfdfd" d="M 12.71875 3.453125 C 12.859375 3.433594 12.996094 3.449219 13.132812 3.5 C 13.289062 3.574219 13.4375 3.660156 13.582031 3.761719 C 13.78125 3.882812 13.988281 3.925781 14.210938 3.898438 C 14.371094 3.886719 14.519531 3.839844 14.65625 3.753906 C 14.796875 3.648438 14.933594 3.53125 15.054688 3.398438 C 15.207031 3.257812 15.386719 3.179688 15.589844 3.167969 C 15.726562 3.148438 15.867188 3.164062 16 3.210938 C 16.15625 3.285156 16.308594 3.375 16.453125 3.476562 C 16.648438 3.59375 16.859375 3.640625 17.082031 3.609375 C 17.238281 3.597656 17.386719 3.550781 17.523438 3.46875 C 17.667969 3.363281 17.800781 3.242188 17.925781 3.109375 C 18.078125 2.96875 18.257812 2.894531 18.457031 2.878906 C 18.597656 2.863281 18.734375 2.878906 18.871094 2.925781 C 19.027344 3 19.179688 3.085938 19.320312 3.1875 C 19.519531 3.308594 19.730469 3.351562 19.953125 3.324219 L 19.941406 3.207031 C 19.800781 3.222656 19.664062 3.207031 19.527344 3.160156 C 19.371094 3.085938 19.21875 3 19.078125 2.898438 C 18.878906 2.777344 18.667969 2.734375 18.445312 2.761719 C 18.289062 2.773438 18.140625 2.820312 18.003906 2.90625 C 17.859375 3.011719 17.726562 3.128906 17.601562 3.261719 C 17.449219 3.402344 17.273438 3.480469 17.070312 3.492188 C 16.929688 3.511719 16.792969 3.496094 16.65625 3.449219 C 16.5 3.375 16.351562 3.285156 16.207031 3.183594 C 16.007812 3.0625 15.800781 3.019531 15.578125 3.046875 C 15.417969 3.058594 15.269531 3.109375 15.132812 3.191406 C 14.988281 3.296875 14.855469 3.417969 14.734375 3.546875 C 14.578125 3.691406 14.402344 3.765625 14.199219 3.78125 C 14.058594 3.796875 13.921875 3.78125 13.789062 3.734375 C 13.632812 3.660156 13.480469 3.570312 13.335938 3.46875 C 13.140625 3.351562 12.929688 3.304688 12.707031 3.335938 Z M 12.71875 3.453125 " fill-opacity="1" fill-rule="nonzero"/></g></g></g><g clip-path="url(#61d0a9ff06)"><g clip-path="url(#acd2f220cb)"><g clip-path="url(#80f88d8978)"><path fill="#fdfdfd" d="M 12.863281 4.902344 C 13.003906 4.886719 13.140625 4.902344 13.277344 4.949219 C 13.433594 5.023438 13.585938 5.113281 13.726562 5.214844 C 13.925781 5.332031 14.132812 5.378906 14.355469 5.347656 C 14.515625 5.335938 14.664062 5.289062 14.800781 5.207031 C 14.945312 5.097656 15.082031 4.980469 15.207031 4.847656 C 15.355469 4.707031 15.53125 4.632812 15.734375 4.617188 C 15.875 4.597656 16.011719 4.613281 16.144531 4.664062 C 16.304688 4.738281 16.453125 4.824219 16.597656 4.925781 C 16.792969 5.046875 17.003906 5.089844 17.226562 5.0625 C 17.382812 5.050781 17.53125 5.003906 17.667969 4.917969 C 17.8125 4.8125 17.949219 4.691406 18.074219 4.558594 C 18.226562 4.421875 18.402344 4.34375 18.601562 4.332031 C 18.742188 4.3125 18.878906 4.328125 19.015625 4.378906 C 19.171875 4.449219 19.324219 4.539062 19.464844 4.640625 C 19.664062 4.757812 19.875 4.804688 20.097656 4.773438 L 20.085938 4.65625 C 19.945312 4.675781 19.808594 4.660156 19.671875 4.613281 C 19.515625 4.539062 19.363281 4.449219 19.222656 4.347656 C 19.023438 4.230469 18.8125 4.183594 18.589844 4.210938 C 18.433594 4.226562 18.285156 4.273438 18.148438 4.355469 C 18.003906 4.460938 17.871094 4.582031 17.746094 4.714844 C 17.59375 4.855469 17.417969 4.933594 17.214844 4.945312 C 17.074219 4.960938 16.9375 4.945312 16.804688 4.898438 C 16.644531 4.824219 16.496094 4.734375 16.351562 4.632812 C 16.152344 4.515625 15.945312 4.472656 15.722656 4.5 C 15.5625 4.511719 15.414062 4.558594 15.277344 4.644531 C 15.136719 4.75 15 4.867188 14.878906 5 C 14.726562 5.140625 14.546875 5.21875 14.34375 5.230469 C 14.207031 5.25 14.066406 5.234375 13.933594 5.183594 C 13.777344 5.109375 13.625 5.023438 13.484375 4.921875 C 13.285156 4.804688 13.074219 4.757812 12.851562 4.785156 Z M 12.863281 4.902344 " fill-opacity="1" fill-rule="nonzero"/></g></g></g><g fill="#a6a6a6" fill-opacity="1"><g transform="translate(3.332393, 23.476733)"><g><path d="M 17.820312 -16.410156 L 9.289062 -16.410156 C 8.183594 -16.410156 7.71875 -15.75 7.71875 -15.132812 C 7.71875 -14.550781 8.144531 -13.988281 8.84375 -13.988281 L 10.003906 -13.988281 L 8.824219 -10.875 L 7.933594 -10.875 C 6.886719 -10.875 6.386719 -10.234375 6.386719 -9.617188 C 6.386719 -9.015625 6.851562 -8.4375 7.777344 -8.4375 L 7.972656 -8.4375 L 6.675781 -4.835938 C 6.019531 -3.019531 5.242188 -2.671875 4.238281 -2.671875 C 3.542969 -2.671875 3.058594 -3.132812 2.882812 -3.597656 C 2.921875 -3.734375 2.941406 -3.871094 2.941406 -4.003906 C 2.941406 -4.894531 2.148438 -5.4375 1.394531 -5.4375 C 0.621094 -5.4375 -0.15625 -4.894531 -0.15625 -3.65625 C -0.15625 -1.820312 1.683594 0 4.21875 0 C 6.210938 0 8.164062 -0.910156 9.269531 -4.003906 C 9.734375 -5.359375 10.371094 -7.101562 10.855469 -8.457031 L 12.015625 -8.457031 C 13.195312 -8.457031 13.660156 -9.132812 13.660156 -9.773438 C 13.660156 -10.332031 13.292969 -10.875 12.714844 -10.875 L 11.707031 -10.875 L 12.789062 -13.988281 L 17.335938 -13.988281 C 18.421875 -14.027344 18.886719 -14.648438 18.886719 -15.265625 C 18.886719 -15.847656 18.480469 -16.410156 17.820312 -16.410156 Z M 17.820312 -16.410156 "/></g></g></g><g fill="#a6a6a6" fill-opacity="1"><g transform="translate(16.217628, 23.476733)"><g><path d="M 2.652344 -3.152344 L 6.714844 -14.917969 C 6.792969 -15.152344 6.832031 -15.382812 6.832031 -15.578125 C 6.832031 -16.3125 6.132812 -16.796875 5.554688 -16.796875 C 4.816406 -16.796875 4.335938 -16.390625 4.023438 -15.519531 L 0 -4.023438 C -0.15625 -3.578125 -0.230469 -3.171875 -0.230469 -2.765625 C -0.230469 -0.988281 1.238281 0 2.941406 0 C 4.78125 0 7.082031 -1.140625 8.4375 -5.167969 C 8.476562 -5.300781 8.496094 -5.4375 8.496094 -5.554688 C 8.496094 -6.171875 7.953125 -6.617188 7.351562 -6.617188 C 6.871094 -6.617188 6.347656 -6.328125 6.074219 -5.613281 C 5.207031 -3.289062 4.082031 -2.300781 3.171875 -2.300781 C 2.785156 -2.300781 2.574219 -2.535156 2.574219 -2.824219 C 2.574219 -2.902344 2.613281 -3.039062 2.652344 -3.152344 Z M 2.652344 -3.152344 "/></g></g></g><g fill="#a6a6a6" fill-opacity="1"><g transform="translate(21.615503, 23.476733)"><g><path d="M 11.085938 -5.613281 C 10.21875 -3.289062 9.152344 -2.300781 8.261719 -2.300781 C 7.914062 -2.300781 7.683594 -2.496094 7.683594 -2.765625 C 7.683594 -2.84375 7.703125 -2.960938 7.738281 -3.058594 L 10.042969 -9.519531 C 10.121094 -9.714844 10.140625 -9.886719 10.140625 -10.0625 C 10.140625 -10.835938 9.460938 -11.359375 8.765625 -11.359375 C 8.203125 -11.359375 7.625 -11.03125 7.332031 -10.21875 L 5.207031 -4.277344 C 4.664062 -3.210938 3.832031 -2.300781 3.058594 -2.300781 C 2.765625 -2.300781 2.613281 -2.496094 2.613281 -2.785156 C 2.613281 -2.941406 2.652344 -3.191406 2.710938 -3.386719 L 4.816406 -9.421875 C 4.894531 -9.636719 4.933594 -9.828125 4.933594 -10.023438 C 4.933594 -10.816406 4.238281 -11.359375 3.523438 -11.359375 C 2.980469 -11.359375 2.398438 -11.03125 2.128906 -10.253906 L -0.136719 -3.65625 C -0.25 -3.308594 -0.308594 -2.960938 -0.308594 -2.632812 C -0.308594 -1.0625 0.96875 0 2.59375 0 C 3.753906 0 4.625 -0.5625 5.339844 -1.335938 C 5.902344 -0.503906 6.945312 0 8.109375 0 C 9.945312 0 12.054688 -1.140625 13.429688 -5.167969 C 13.46875 -5.28125 13.488281 -5.398438 13.488281 -5.515625 C 13.488281 -6.132812 12.90625 -6.5 12.304688 -6.5 C 11.804688 -6.5 11.28125 -6.230469 11.085938 -5.613281 Z M 11.085938 -5.613281 "/></g></g></g><g fill="#a6a6a6" fill-opacity="1"><g transform="translate(32.043644, 23.476733)"><g><path d="M 13.214844 -5.6875 C 12.34375 -3.425781 10.914062 -2.339844 9.753906 -2.339844 C 8.609375 -2.339844 8.242188 -2.960938 7.953125 -5.628906 C 8.785156 -6.871094 9.539062 -7.757812 10.101562 -8.183594 C 10.410156 -7.816406 10.816406 -7.625 11.339844 -7.625 C 12.132812 -7.625 12.90625 -8.222656 12.90625 -9.09375 C 12.90625 -10.140625 12.152344 -10.835938 11.03125 -10.835938 C 9.734375 -10.835938 8.089844 -9.773438 7.3125 -8.6875 C 6.636719 -10.46875 5.902344 -11.359375 4.566406 -11.359375 C 3.578125 -11.359375 2.554688 -10.796875 2.128906 -9.675781 C 1.566406 -8.222656 1.375 -7.585938 0.734375 -5.804688 C 0.675781 -5.667969 0.65625 -5.535156 0.65625 -5.417969 C 0.65625 -4.816406 1.199219 -4.429688 1.800781 -4.429688 C 2.320312 -4.429688 2.882812 -4.742188 3.132812 -5.476562 C 3.289062 -5.960938 3.984375 -7.914062 4.199219 -8.457031 C 4.507812 -8.203125 4.992188 -7.566406 5.242188 -6.445312 L 2.109375 -1.992188 C 1.875 -1.683594 1.761719 -1.394531 1.761719 -1.121094 C 1.761719 -0.464844 2.378906 0 3.039062 0 C 3.464844 0 3.910156 -0.195312 4.199219 -0.636719 L 5.824219 -3.097656 C 6.230469 -1.21875 7.605469 0 9.460938 0 C 11.765625 0 14.203125 -1.800781 15.539062 -5.207031 C 15.597656 -5.359375 15.636719 -5.496094 15.636719 -5.628906 C 15.636719 -6.210938 15.09375 -6.539062 14.511719 -6.539062 C 13.988281 -6.539062 13.449219 -6.269531 13.214844 -5.6875 Z M 13.214844 -5.6875 "/></g></g></g><g fill="#a6a6a6" fill-opacity="1"><g transform="translate(44.541943, 23.476733)"><g><path d="M 5.207031 -13.136719 C 6.074219 -13.136719 6.792969 -13.855469 6.792969 -14.746094 C 6.792969 -15.617188 6.074219 -16.3125 5.207031 -16.3125 C 4.335938 -16.3125 3.617188 -15.617188 3.617188 -14.746094 C 3.617188 -13.855469 4.335938 -13.136719 5.207031 -13.136719 Z M 2.59375 -3.269531 L 4.722656 -9.347656 C 4.796875 -9.597656 4.894531 -9.867188 4.894531 -10.0625 C 4.894531 -10.914062 4.257812 -11.359375 3.597656 -11.359375 C 3 -11.359375 2.359375 -10.933594 2.050781 -10.023438 C 1.433594 -8.203125 0.621094 -5.902344 0 -4.101562 C -0.117188 -3.714844 -0.269531 -3.191406 -0.269531 -2.863281 C -0.269531 -1.042969 1.238281 0 3.019531 0 C 4.914062 0 7.003906 -1.160156 8.359375 -5.167969 C 8.398438 -5.28125 8.417969 -5.398438 8.417969 -5.515625 C 8.417969 -6.113281 7.835938 -6.480469 7.257812 -6.480469 C 6.734375 -6.480469 6.210938 -6.210938 5.980469 -5.613281 C 5.070312 -3.097656 4.042969 -2.300781 3.269531 -2.300781 C 2.824219 -2.300781 2.535156 -2.59375 2.535156 -2.960938 C 2.535156 -3.058594 2.554688 -3.152344 2.59375 -3.269531 Z M 2.59375 -3.269531 "/></g></g></g><g fill="#a6a6a6" fill-opacity="1"><g transform="translate(49.881775, 23.476733)"><g><path d="M 10.507812 -6.152344 C 10.101562 -5.03125 9.230469 -4.335938 8.203125 -4.335938 L 8.109375 -4.335938 L 8.976562 -6.695312 C 9.171875 -7.21875 9.269531 -7.738281 9.269531 -8.203125 C 9.269531 -10.101562 7.835938 -11.359375 6.132812 -11.359375 C 5.804688 -11.359375 5.515625 -11.320312 5.207031 -11.222656 L 6.464844 -14.839844 C 6.539062 -15.09375 6.597656 -15.304688 6.597656 -15.519531 C 6.597656 -16.332031 5.941406 -16.796875 5.261719 -16.796875 C 4.664062 -16.796875 4.082031 -16.429688 3.8125 -15.636719 C 2.417969 -11.570312 1.238281 -8.320312 0 -4.722656 C -0.175781 -4.238281 -0.269531 -3.675781 -0.269531 -3.230469 C -0.269531 -1.121094 1.46875 0 3.40625 0 C 4.816406 0 6.386719 -0.542969 7.21875 -2.089844 C 7.449219 -2.050781 7.703125 -2.03125 7.953125 -2.03125 C 10.003906 -2.03125 12.074219 -3.25 12.769531 -5.457031 C 12.808594 -5.574219 12.828125 -5.667969 12.828125 -5.765625 C 12.828125 -6.40625 12.152344 -6.8125 11.511719 -6.8125 C 11.085938 -6.8125 10.660156 -6.617188 10.507812 -6.152344 Z M 4.761719 -3.328125 L 4.722656 -3.171875 C 4.488281 -2.535156 3.910156 -2.300781 3.40625 -2.300781 C 2.84375 -2.300781 2.476562 -2.613281 2.476562 -3.152344 C 2.476562 -3.328125 2.496094 -3.523438 2.574219 -3.734375 C 3.097656 -5.1875 3.523438 -6.40625 4.023438 -7.875 C 4.410156 -8.589844 5.03125 -9.074219 5.59375 -9.074219 C 6.09375 -9.074219 6.445312 -8.746094 6.445312 -8.261719 C 6.445312 -8.128906 6.425781 -7.972656 6.367188 -7.816406 L 5.960938 -6.65625 C 5.84375 -6.695312 5.980469 -6.65625 5.84375 -6.65625 C 4.894531 -6.65625 4.140625 -5.882812 4.140625 -4.894531 C 4.140625 -4.335938 4.355469 -3.792969 4.761719 -3.328125 Z M 4.761719 -3.328125 "/></g></g></g><g fill="#a6a6a6" fill-opacity="1"><g transform="translate(59.536033, 23.476733)"><g><path d="M 10.507812 -6.152344 C 10.101562 -5.03125 9.230469 -4.335938 8.203125 -4.335938 L 8.109375 -4.335938 L 8.976562 -6.695312 C 9.171875 -7.21875 9.269531 -7.738281 9.269531 -8.203125 C 9.269531 -10.101562 7.835938 -11.359375 6.132812 -11.359375 C 5.804688 -11.359375 5.515625 -11.320312 5.207031 -11.222656 L 6.464844 -14.839844 C 6.539062 -15.09375 6.597656 -15.304688 6.597656 -15.519531 C 6.597656 -16.332031 5.941406 -16.796875 5.261719 -16.796875 C 4.664062 -16.796875 4.082031 -16.429688 3.8125 -15.636719 C 2.417969 -11.570312 1.238281 -8.320312 0 -4.722656 C -0.175781 -4.238281 -0.269531 -3.675781 -0.269531 -3.230469 C -0.269531 -1.121094 1.46875 0 3.40625 0 C 4.816406 0 6.386719 -0.542969 7.21875 -2.089844 C 7.449219 -2.050781 7.703125 -2.03125 7.953125 -2.03125 C 10.003906 -2.03125 12.074219 -3.25 12.769531 -5.457031 C 12.808594 -5.574219 12.828125 -5.667969 12.828125 -5.765625 C 12.828125 -6.40625 12.152344 -6.8125 11.511719 -6.8125 C 11.085938 -6.8125 10.660156 -6.617188 10.507812 -6.152344 Z M 4.761719 -3.328125 L 4.722656 -3.171875 C 4.488281 -2.535156 3.910156 -2.300781 3.40625 -2.300781 C 2.84375 -2.300781 2.476562 -2.613281 2.476562 -3.152344 C 2.476562 -3.328125 2.496094 -3.523438 2.574219 -3.734375 C 3.097656 -5.1875 3.523438 -6.40625 4.023438 -7.875 C 4.410156 -8.589844 5.03125 -9.074219 5.59375 -9.074219 C 6.09375 -9.074219 6.445312 -8.746094 6.445312 -8.261719 C 6.445312 -8.128906 6.425781 -7.972656 6.367188 -7.816406 L 5.960938 -6.65625 C 5.84375 -6.695312 5.980469 -6.65625 5.84375 -6.65625 C 4.894531 -6.65625 4.140625 -5.882812 4.140625 -4.894531 C 4.140625 -4.335938 4.355469 -3.792969 4.761719 -3.328125 Z M 4.761719 -3.328125 "/></g></g></g><g fill="#a6a6a6" fill-opacity="1"><g transform="translate(69.19029, 23.476733)"><g><path d="M 2.652344 -3.152344 L 6.714844 -14.917969 C 6.792969 -15.152344 6.832031 -15.382812 6.832031 -15.578125 C 6.832031 -16.3125 6.132812 -16.796875 5.554688 -16.796875 C 4.816406 -16.796875 4.335938 -16.390625 4.023438 -15.519531 L 0 -4.023438 C -0.15625 -3.578125 -0.230469 -3.171875 -0.230469 -2.765625 C -0.230469 -0.988281 1.238281 0 2.941406 0 C 4.78125 0 7.082031 -1.140625 8.4375 -5.167969 C 8.476562 -5.300781 8.496094 -5.4375 8.496094 -5.554688 C 8.496094 -6.171875 7.953125 -6.617188 7.351562 -6.617188 C 6.871094 -6.617188 6.347656 -6.328125 6.074219 -5.613281 C 5.207031 -3.289062 4.082031 -2.300781 3.171875 -2.300781 C 2.785156 -2.300781 2.574219 -2.535156 2.574219 -2.824219 C 2.574219 -2.902344 2.613281 -3.039062 2.652344 -3.152344 Z M 2.652344 -3.152344 "/></g></g></g><g fill="#a6a6a6" fill-opacity="1"><g transform="translate(74.588166, 23.476733)"><g><path d="M 9.792969 -5.457031 C 8.941406 -3.210938 6.90625 -2.300781 5.261719 -2.300781 C 3.851562 -2.300781 2.960938 -2.980469 2.960938 -3.871094 C 2.960938 -4.042969 2.980469 -4.21875 3.058594 -4.410156 L 3.210938 -4.78125 C 3.773438 -4.429688 4.46875 -4.199219 5.242188 -4.199219 C 7.003906 -4.199219 8.550781 -5.300781 9.074219 -7.042969 C 9.171875 -7.410156 9.230469 -7.777344 9.230469 -8.109375 C 9.230469 -9.945312 7.777344 -11.359375 5.59375 -11.359375 C 3.871094 -11.359375 2.1875 -10.351562 1.507812 -8.417969 L 0.367188 -5.109375 C 0.210938 -4.644531 0.117188 -4.179688 0.117188 -3.734375 C 0.117188 -1.433594 2.285156 0 5.109375 0 C 7.796875 0 10.855469 -1.316406 12.132812 -5.011719 C 12.191406 -5.167969 12.210938 -5.300781 12.210938 -5.417969 C 12.210938 -6.019531 11.667969 -6.347656 11.085938 -6.347656 C 10.546875 -6.347656 9.964844 -6.054688 9.792969 -5.457031 Z M 5.535156 -9.074219 C 6.074219 -9.074219 6.425781 -8.628906 6.425781 -8.070312 C 6.425781 -7.914062 6.40625 -7.757812 6.347656 -7.605469 C 6.152344 -6.964844 5.574219 -6.734375 4.992188 -6.734375 C 4.625 -6.734375 4.257812 -6.8125 3.984375 -6.964844 L 4.390625 -8.128906 C 4.605469 -8.726562 5.089844 -9.074219 5.535156 -9.074219 Z M 5.535156 -9.074219 "/></g></g></g><g fill="#ffde59" fill-opacity="1"><g transform="translate(2.305946, 22.450287)"><g><path d="M 17.820312 -16.410156 L 9.289062 -16.410156 C 8.183594 -16.410156 7.71875 -15.75 7.71875 -15.132812 C 7.71875 -14.550781 8.144531 -13.988281 8.84375 -13.988281 L 10.003906 -13.988281 L 8.824219 -10.875 L 7.933594 -10.875 C 6.886719 -10.875 6.386719 -10.234375 6.386719 -9.617188 C 6.386719 -9.015625 6.851562 -8.4375 7.777344 -8.4375 L 7.972656 -8.4375 L 6.675781 -4.835938 C 6.019531 -3.019531 5.242188 -2.671875 4.238281 -2.671875 C 3.542969 -2.671875 3.058594 -3.132812 2.882812 -3.597656 C 2.921875 -3.734375 2.941406 -3.871094 2.941406 -4.003906 C 2.941406 -4.894531 2.148438 -5.4375 1.394531 -5.4375 C 0.621094 -5.4375 -0.15625 -4.894531 -0.15625 -3.65625 C -0.15625 -1.820312 1.683594 0 4.21875 0 C 6.210938 0 8.164062 -0.910156 9.269531 -4.003906 C 9.734375 -5.359375 10.371094 -7.101562 10.855469 -8.457031 L 12.015625 -8.457031 C 13.195312 -8.457031 13.660156 -9.132812 13.660156 -9.773438 C 13.660156 -10.332031 13.292969 -10.875 12.714844 -10.875 L 11.707031 -10.875 L 12.789062 -13.988281 L 17.335938 -13.988281 C 18.421875 -14.027344 18.886719 -14.648438 18.886719 -15.265625 C 18.886719 -15.847656 18.480469 -16.410156 17.820312 -16.410156 Z M 17.820312 -16.410156 "/></g></g></g><g fill="#ffde59" fill-opacity="1"><g transform="translate(15.191181, 22.450287)"><g><path d="M 2.652344 -3.152344 L 6.714844 -14.917969 C 6.792969 -15.152344 6.832031 -15.382812 6.832031 -15.578125 C 6.832031 -16.3125 6.132812 -16.796875 5.554688 -16.796875 C 4.816406 -16.796875 4.335938 -16.390625 4.023438 -15.519531 L 0 -4.023438 C -0.15625 -3.578125 -0.230469 -3.171875 -0.230469 -2.765625 C -0.230469 -0.988281 1.238281 0 2.941406 0 C 4.78125 0 7.082031 -1.140625 8.4375 -5.167969 C 8.476562 -5.300781 8.496094 -5.4375 8.496094 -5.554688 C 8.496094 -6.171875 7.953125 -6.617188 7.351562 -6.617188 C 6.871094 -6.617188 6.347656 -6.328125 6.074219 -5.613281 C 5.207031 -3.289062 4.082031 -2.300781 3.171875 -2.300781 C 2.785156 -2.300781 2.574219 -2.535156 2.574219 -2.824219 C 2.574219 -2.902344 2.613281 -3.039062 2.652344 -3.152344 Z M 2.652344 -3.152344 "/></g></g></g><g fill="#ffde59" fill-opacity="1"><g transform="translate(20.589057, 22.450287)"><g><path d="M 11.085938 -5.613281 C 10.21875 -3.289062 9.152344 -2.300781 8.261719 -2.300781 C 7.914062 -2.300781 7.683594 -2.496094 7.683594 -2.765625 C 7.683594 -2.84375 7.703125 -2.960938 7.738281 -3.058594 L 10.042969 -9.519531 C 10.121094 -9.714844 10.140625 -9.886719 10.140625 -10.0625 C 10.140625 -10.835938 9.460938 -11.359375 8.765625 -11.359375 C 8.203125 -11.359375 7.625 -11.03125 7.332031 -10.21875 L 5.207031 -4.277344 C 4.664062 -3.210938 3.832031 -2.300781 3.058594 -2.300781 C 2.765625 -2.300781 2.613281 -2.496094 2.613281 -2.785156 C 2.613281 -2.941406 2.652344 -3.191406 2.710938 -3.386719 L 4.816406 -9.421875 C 4.894531 -9.636719 4.933594 -9.828125 4.933594 -10.023438 C 4.933594 -10.816406 4.238281 -11.359375 3.523438 -11.359375 C 2.980469 -11.359375 2.398438 -11.03125 2.128906 -10.253906 L -0.136719 -3.65625 C -0.25 -3.308594 -0.308594 -2.960938 -0.308594 -2.632812 C -0.308594 -1.0625 0.96875 0 2.59375 0 C 3.753906 0 4.625 -0.5625 5.339844 -1.335938 C 5.902344 -0.503906 6.945312 0 8.109375 0 C 9.945312 0 12.054688 -1.140625 13.429688 -5.167969 C 13.46875 -5.28125 13.488281 -5.398438 13.488281 -5.515625 C 13.488281 -6.132812 12.90625 -6.5 12.304688 -6.5 C 11.804688 -6.5 11.28125 -6.230469 11.085938 -5.613281 Z M 11.085938 -5.613281 "/></g></g></g><g fill="#ffde59" fill-opacity="1"><g transform="translate(31.017197, 22.450287)"><g><path d="M 13.214844 -5.6875 C 12.34375 -3.425781 10.914062 -2.339844 9.753906 -2.339844 C 8.609375 -2.339844 8.242188 -2.960938 7.953125 -5.628906 C 8.785156 -6.871094 9.539062 -7.757812 10.101562 -8.183594 C 10.410156 -7.816406 10.816406 -7.625 11.339844 -7.625 C 12.132812 -7.625 12.90625 -8.222656 12.90625 -9.09375 C 12.90625 -10.140625 12.152344 -10.835938 11.03125 -10.835938 C 9.734375 -10.835938 8.089844 -9.773438 7.3125 -8.6875 C 6.636719 -10.46875 5.902344 -11.359375 4.566406 -11.359375 C 3.578125 -11.359375 2.554688 -10.796875 2.128906 -9.675781 C 1.566406 -8.222656 1.375 -7.585938 0.734375 -5.804688 C 0.675781 -5.667969 0.65625 -5.535156 0.65625 -5.417969 C 0.65625 -4.816406 1.199219 -4.429688 1.800781 -4.429688 C 2.320312 -4.429688 2.882812 -4.742188 3.132812 -5.476562 C 3.289062 -5.960938 3.984375 -7.914062 4.199219 -8.457031 C 4.507812 -8.203125 4.992188 -7.566406 5.242188 -6.445312 L 2.109375 -1.992188 C 1.875 -1.683594 1.761719 -1.394531 1.761719 -1.121094 C 1.761719 -0.464844 2.378906 0 3.039062 0 C 3.464844 0 3.910156 -0.195312 4.199219 -0.636719 L 5.824219 -3.097656 C 6.230469 -1.21875 7.605469 0 9.460938 0 C 11.765625 0 14.203125 -1.800781 15.539062 -5.207031 C 15.597656 -5.359375 15.636719 -5.496094 15.636719 -5.628906 C 15.636719 -6.210938 15.09375 -6.539062 14.511719 -6.539062 C 13.988281 -6.539062 13.449219 -6.269531 13.214844 -5.6875 Z M 13.214844 -5.6875 "/></g></g></g><g fill="#ffde59" fill-opacity="1"><g transform="translate(43.515496, 22.450287)"><g><path d="M 5.207031 -13.136719 C 6.074219 -13.136719 6.792969 -13.855469 6.792969 -14.746094 C 6.792969 -15.617188 6.074219 -16.3125 5.207031 -16.3125 C 4.335938 -16.3125 3.617188 -15.617188 3.617188 -14.746094 C 3.617188 -13.855469 4.335938 -13.136719 5.207031 -13.136719 Z M 2.59375 -3.269531 L 4.722656 -9.347656 C 4.796875 -9.597656 4.894531 -9.867188 4.894531 -10.0625 C 4.894531 -10.914062 4.257812 -11.359375 3.597656 -11.359375 C 3 -11.359375 2.359375 -10.933594 2.050781 -10.023438 C 1.433594 -8.203125 0.621094 -5.902344 0 -4.101562 C -0.117188 -3.714844 -0.269531 -3.191406 -0.269531 -2.863281 C -0.269531 -1.042969 1.238281 0 3.019531 0 C 4.914062 0 7.003906 -1.160156 8.359375 -5.167969 C 8.398438 -5.28125 8.417969 -5.398438 8.417969 -5.515625 C 8.417969 -6.113281 7.835938 -6.480469 7.257812 -6.480469 C 6.734375 -6.480469 6.210938 -6.210938 5.980469 -5.613281 C 5.070312 -3.097656 4.042969 -2.300781 3.269531 -2.300781 C 2.824219 -2.300781 2.535156 -2.59375 2.535156 -2.960938 C 2.535156 -3.058594 2.554688 -3.152344 2.59375 -3.269531 Z M 2.59375 -3.269531 "/></g></g></g><g fill="#ffde59" fill-opacity="1"><g transform="translate(48.855328, 22.450287)"><g><path d="M 10.507812 -6.152344 C 10.101562 -5.03125 9.230469 -4.335938 8.203125 -4.335938 L 8.109375 -4.335938 L 8.976562 -6.695312 C 9.171875 -7.21875 9.269531 -7.738281 9.269531 -8.203125 C 9.269531 -10.101562 7.835938 -11.359375 6.132812 -11.359375 C 5.804688 -11.359375 5.515625 -11.320312 5.207031 -11.222656 L 6.464844 -14.839844 C 6.539062 -15.09375 6.597656 -15.304688 6.597656 -15.519531 C 6.597656 -16.332031 5.941406 -16.796875 5.261719 -16.796875 C 4.664062 -16.796875 4.082031 -16.429688 3.8125 -15.636719 C 2.417969 -11.570312 1.238281 -8.320312 0 -4.722656 C -0.175781 -4.238281 -0.269531 -3.675781 -0.269531 -3.230469 C -0.269531 -1.121094 1.46875 0 3.40625 0 C 4.816406 0 6.386719 -0.542969 7.21875 -2.089844 C 7.449219 -2.050781 7.703125 -2.03125 7.953125 -2.03125 C 10.003906 -2.03125 12.074219 -3.25 12.769531 -5.457031 C 12.808594 -5.574219 12.828125 -5.667969 12.828125 -5.765625 C 12.828125 -6.40625 12.152344 -6.8125 11.511719 -6.8125 C 11.085938 -6.8125 10.660156 -6.617188 10.507812 -6.152344 Z M 4.761719 -3.328125 L 4.722656 -3.171875 C 4.488281 -2.535156 3.910156 -2.300781 3.40625 -2.300781 C 2.84375 -2.300781 2.476562 -2.613281 2.476562 -3.152344 C 2.476562 -3.328125 2.496094 -3.523438 2.574219 -3.734375 C 3.097656 -5.1875 3.523438 -6.40625 4.023438 -7.875 C 4.410156 -8.589844 5.03125 -9.074219 5.59375 -9.074219 C 6.09375 -9.074219 6.445312 -8.746094 6.445312 -8.261719 C 6.445312 -8.128906 6.425781 -7.972656 6.367188 -7.816406 L 5.960938 -6.65625 C 5.84375 -6.695312 5.980469 -6.65625 5.84375 -6.65625 C 4.894531 -6.65625 4.140625 -5.882812 4.140625 -4.894531 C 4.140625 -4.335938 4.355469 -3.792969 4.761719 -3.328125 Z M 4.761719 -3.328125 "/></g></g></g><g fill="#ffde59" fill-opacity="1"><g transform="translate(58.509586, 22.450287)"><g><path d="M 10.507812 -6.152344 C 10.101562 -5.03125 9.230469 -4.335938 8.203125 -4.335938 L 8.109375 -4.335938 L 8.976562 -6.695312 C 9.171875 -7.21875 9.269531 -7.738281 9.269531 -8.203125 C 9.269531 -10.101562 7.835938 -11.359375 6.132812 -11.359375 C 5.804688 -11.359375 5.515625 -11.320312 5.207031 -11.222656 L 6.464844 -14.839844 C 6.539062 -15.09375 6.597656 -15.304688 6.597656 -15.519531 C 6.597656 -16.332031 5.941406 -16.796875 5.261719 -16.796875 C 4.664062 -16.796875 4.082031 -16.429688 3.8125 -15.636719 C 2.417969 -11.570312 1.238281 -8.320312 0 -4.722656 C -0.175781 -4.238281 -0.269531 -3.675781 -0.269531 -3.230469 C -0.269531 -1.121094 1.46875 0 3.40625 0 C 4.816406 0 6.386719 -0.542969 7.21875 -2.089844 C 7.449219 -2.050781 7.703125 -2.03125 7.953125 -2.03125 C 10.003906 -2.03125 12.074219 -3.25 12.769531 -5.457031 C 12.808594 -5.574219 12.828125 -5.667969 12.828125 -5.765625 C 12.828125 -6.40625 12.152344 -6.8125 11.511719 -6.8125 C 11.085938 -6.8125 10.660156 -6.617188 10.507812 -6.152344 Z M 4.761719 -3.328125 L 4.722656 -3.171875 C 4.488281 -2.535156 3.910156 -2.300781 3.40625 -2.300781 C 2.84375 -2.300781 2.476562 -2.613281 2.476562 -3.152344 C 2.476562 -3.328125 2.496094 -3.523438 2.574219 -3.734375 C 3.097656 -5.1875 3.523438 -6.40625 4.023438 -7.875 C 4.410156 -8.589844 5.03125 -9.074219 5.59375 -9.074219 C 6.09375 -9.074219 6.445312 -8.746094 6.445312 -8.261719 C 6.445312 -8.128906 6.425781 -7.972656 6.367188 -7.816406 L 5.960938 -6.65625 C 5.84375 -6.695312 5.980469 -6.65625 5.84375 -6.65625 C 4.894531 -6.65625 4.140625 -5.882812 4.140625 -4.894531 C 4.140625 -4.335938 4.355469 -3.792969 4.761719 -3.328125 Z M 4.761719 -3.328125 "/></g></g></g><g fill="#ffde59" fill-opacity="1"><g transform="translate(68.163844, 22.450287)"><g><path d="M 2.652344 -3.152344 L 6.714844 -14.917969 C 6.792969 -15.152344 6.832031 -15.382812 6.832031 -15.578125 C 6.832031 -16.3125 6.132812 -16.796875 5.554688 -16.796875 C 4.816406 -16.796875 4.335938 -16.390625 4.023438 -15.519531 L 0 -4.023438 C -0.15625 -3.578125 -0.230469 -3.171875 -0.230469 -2.765625 C -0.230469 -0.988281 1.238281 0 2.941406 0 C 4.78125 0 7.082031 -1.140625 8.4375 -5.167969 C 8.476562 -5.300781 8.496094 -5.4375 8.496094 -5.554688 C 8.496094 -6.171875 7.953125 -6.617188 7.351562 -6.617188 C 6.871094 -6.617188 6.347656 -6.328125 6.074219 -5.613281 C 5.207031 -3.289062 4.082031 -2.300781 3.171875 -2.300781 C 2.785156 -2.300781 2.574219 -2.535156 2.574219 -2.824219 C 2.574219 -2.902344 2.613281 -3.039062 2.652344 -3.152344 Z M 2.652344 -3.152344 "/></g></g></g><g fill="#ffde59" fill-opacity="1"><g transform="translate(73.561719, 22.450287)"><g><path d="M 9.792969 -5.457031 C 8.941406 -3.210938 6.90625 -2.300781 5.261719 -2.300781 C 3.851562 -2.300781 2.960938 -2.980469 2.960938 -3.871094 C 2.960938 -4.042969 2.980469 -4.21875 3.058594 -4.410156 L 3.210938 -4.78125 C 3.773438 -4.429688 4.46875 -4.199219 5.242188 -4.199219 C 7.003906 -4.199219 8.550781 -5.300781 9.074219 -7.042969 C 9.171875 -7.410156 9.230469 -7.777344 9.230469 -8.109375 C 9.230469 -9.945312 7.777344 -11.359375 5.59375 -11.359375 C 3.871094 -11.359375 2.1875 -10.351562 1.507812 -8.417969 L 0.367188 -5.109375 C 0.210938 -4.644531 0.117188 -4.179688 0.117188 -3.734375 C 0.117188 -1.433594 2.285156 0 5.109375 0 C 7.796875 0 10.855469 -1.316406 12.132812 -5.011719 C 12.191406 -5.167969 12.210938 -5.300781 12.210938 -5.417969 C 12.210938 -6.019531 11.667969 -6.347656 11.085938 -6.347656 C 10.546875 -6.347656 9.964844 -6.054688 9.792969 -5.457031 Z M 5.535156 -9.074219 C 6.074219 -9.074219 6.425781 -8.628906 6.425781 -8.070312 C 6.425781 -7.914062 6.40625 -7.757812 6.347656 -7.605469 C 6.152344 -6.964844 5.574219 -6.734375 4.992188 -6.734375 C 4.625 -6.734375 4.257812 -6.8125 3.984375 -6.964844 L 4.390625 -8.128906 C 4.605469 -8.726562 5.089844 -9.074219 5.535156 -9.074219 Z M 5.535156 -9.074219 "/></g></g></g></svg>